<svg width="96" height="22" viewBox="0 0 96 22" fill="none" xmlns="http://www.w3.org/2000/svg">
<path d="M91.1934 0C93.4025 0 95.1934 1.79086 95.1934 4V17.3496C95.1932 19.5586 93.4024 21.3496 91.1934 21.3496H60.4697C58.2607 21.3496 56.4699 19.5586 56.4697 17.3496V4C56.4697 1.79086 58.2606 0 60.4697 0H91.1934ZM74.3418 6.00098C73.2487 6.00104 72.2822 6.23368 71.4424 6.7002C70.6026 7.1668 69.9491 7.83373 69.4824 8.7002C69.0159 9.5668 68.7822 10.5742 68.7822 11.7207C68.7823 12.8538 69.0158 13.8542 69.4824 14.7207C69.9623 15.587 70.6222 16.2603 71.4619 16.7402C72.3151 17.2068 73.2754 17.4404 74.3418 17.4404C75.6617 17.4404 76.776 17.1008 77.6826 16.4209C78.5892 15.7276 79.2024 14.8468 79.5225 13.7803H76.502C76.0619 14.6734 75.3221 15.1201 74.2822 15.1201C73.5623 15.1201 72.9552 14.8937 72.4619 14.4404C71.9688 13.9872 71.6888 13.3602 71.6221 12.5605H79.7227C79.776 12.2406 79.8017 11.8803 79.8018 11.4805C79.8018 10.4006 79.5691 9.44672 79.1025 8.62012C78.6492 7.78024 78.002 7.13397 77.1621 6.68066C76.3354 6.22734 75.3951 6.00098 74.3418 6.00098ZM7.16016 3.10059C8.48009 3.10061 9.67981 3.4072 10.7598 4.02051C11.8531 4.63383 12.7132 5.48678 13.3398 6.58008C13.9798 7.66008 14.2998 8.88023 14.2998 10.2402C14.2998 11.6135 13.9798 12.8471 13.3398 13.9404C12.7132 15.0203 11.853 15.8672 10.7598 16.4805C9.66657 17.0937 8.46663 17.4004 7.16016 17.4004C5.85349 17.4004 4.6529 17.0938 3.55957 16.4805C2.46639 15.8672 1.59992 15.0203 0.959961 13.9404C0.319982 12.8471 2.13321e-05 11.6135 0 10.2402C0 8.88024 0.319962 7.66008 0.959961 6.58008C1.59986 5.48691 2.46647 4.63382 3.55957 4.02051C4.6529 3.40718 5.85349 3.10059 7.16016 3.10059ZM67.6162 6.02051C66.8696 6.02051 66.2028 6.18723 65.6162 6.52051C65.043 6.85383 64.5758 7.31378 64.2158 7.90039V6.18066H61.416V17.2607H64.2158V11.7402C64.2159 10.7139 64.4361 9.9934 64.876 9.58008C65.3293 9.16687 65.9961 8.96094 66.876 8.96094H67.6162V6.02051ZM84.7461 17.2607H88.1465L92.2461 6.18066H89.2656L86.4658 14.6807L83.666 6.18066H80.666L84.7461 17.2607ZM30.1436 6.02051C31.5036 6.02051 32.5972 6.44027 33.4238 7.28027C34.2637 8.10686 34.6835 9.26666 34.6836 10.7598V17.2598H31.8838V11.1406C31.8838 10.274 31.6636 9.61349 31.2236 9.16016C30.7836 8.69354 30.1838 8.45997 29.4238 8.45996C28.6638 8.45996 28.0568 8.69349 27.6035 9.16016C27.1636 9.61349 26.9434 10.274 26.9434 11.1406V17.2598H24.1436V11.1406C24.1436 10.274 23.9234 9.61349 23.4834 9.16016C23.0434 8.69361 22.4435 8.45996 21.6836 8.45996C20.9104 8.46 20.297 8.69353 19.8438 9.16016C19.4038 9.61349 19.1836 10.274 19.1836 11.1406V17.2598H16.3838V6.17969H19.1836V7.52051C19.5436 7.05389 20.0036 6.68658 20.5635 6.41992C21.1367 6.15331 21.7635 6.02056 22.4434 6.02051C23.31 6.02051 24.0837 6.20679 24.7637 6.58008C25.4437 6.94008 25.9704 7.46063 26.3438 8.14062C26.7037 7.5008 27.2236 6.98722 27.9033 6.60059C28.5966 6.21396 29.3436 6.02055 30.1436 6.02051ZM43.4805 6.02051C44.8005 6.02051 45.8673 6.44028 46.6807 7.28027C47.4939 8.10687 47.9003 9.26661 47.9004 10.7598V17.2598H45.1006V11.1406C45.1006 10.2606 44.8804 9.58678 44.4404 9.12012C44.0004 8.64025 43.4005 8.40039 42.6406 8.40039C41.8674 8.40043 41.2541 8.64016 40.8008 9.12012C40.3608 9.58678 40.1406 10.2606 40.1406 11.1406V17.2598H37.3408V6.17969H40.1406V7.56055C40.5139 7.08064 40.9874 6.70709 41.5605 6.44043C42.1471 6.16048 42.7873 6.02056 43.4805 6.02051ZM53.3623 17.2598H50.5625V6.17969H53.3623V17.2598ZM7.16016 5.62012C6.32021 5.62012 5.57323 5.8064 4.91992 6.17969C4.27998 6.55299 3.77991 7.09324 3.41992 7.7998C3.05992 8.49314 2.87988 9.3069 2.87988 10.2402C2.8799 11.1735 3.05994 11.9936 3.41992 12.7002C3.77989 13.4068 4.28002 13.9532 4.91992 14.3398C5.57326 14.7132 6.32016 14.9004 7.16016 14.9004C8.00009 14.9004 8.73992 14.7132 9.37988 14.3398C10.0198 13.9532 10.5199 13.4068 10.8799 12.7002C11.2399 11.9936 11.4199 11.1735 11.4199 10.2402C11.4199 9.3069 11.2399 8.49314 10.8799 7.7998C10.5199 7.09328 10.0198 6.55297 9.37988 6.17969C8.73998 5.80648 7.99998 5.62014 7.16016 5.62012ZM74.2627 8.30078C74.9958 8.30088 75.6155 8.52103 76.1221 8.96094C76.6285 9.38758 76.889 9.96081 76.9023 10.6807H71.6426C71.7492 9.93416 72.0355 9.35375 72.502 8.94043C72.982 8.51376 73.5694 8.30078 74.2627 8.30078ZM51.9824 1.58008C52.4758 1.58008 52.8831 1.74055 53.2031 2.06055C53.5361 2.36707 53.703 2.75343 53.7031 3.21973C53.7031 3.68636 53.5364 4.0804 53.2031 4.40039C52.8831 4.70706 52.4758 4.86035 51.9824 4.86035C51.4894 4.8603 51.0764 4.70675 50.7432 4.40039C50.4232 4.08039 50.2627 3.68639 50.2627 3.21973C50.2628 2.75322 50.4232 2.36714 50.7432 2.06055C51.0764 1.74061 51.4892 1.58014 51.9824 1.58008Z" fill="#02862F"/>
</svg>
